<?xml version="1.0" encoding="utf-8"?>
<!-- Generator: Adobe Illustrator 27.4.0, SVG Export Plug-In . SVG Version: 6.00 Build 0)  -->
<svg version="1.1" id="레이어_1" xmlns="http://www.w3.org/2000/svg" xmlns:xlink="http://www.w3.org/1999/xlink" x="0px"
	 y="0px" viewBox="0 0 1000 1000" style="enable-background:new 0 0 1000 1000;" xml:space="preserve">
<style type="text/css">
	.st0{fill:#63CDE5;}
	.st1{fill:#6AEAA3;}
	.st2{fill:none;stroke:#000000;stroke-width:0.9882;stroke-miterlimit:10;}
	.st3{fill:url(#SVGID_1_);}
	.st4{fill:none;}
	.st5{fill:url(#SVGID_00000041287657471842417170000016582922790456396180_);}
	.st6{fill:url(#SVGID_00000160895486307485619050000014141576020068635795_);}
	.st7{fill:url(#SVGID_00000083074532009187399830000004522290350231240582_);}
	.st8{fill:url(#SVGID_00000041266885064035080310000008362968651729297564_);}
	.st9{fill:url(#SVGID_00000136413379244241668490000015522673671498778764_);}
	.st10{fill:url(#SVGID_00000157290333084147200160000010917661883147977374_);}
	.st11{fill:url(#SVGID_00000153674760267244524420000017073186636203827894_);}
	.st12{fill:url(#SVGID_00000162332907457914140980000006501711622030193057_);}
</style>
<g>
	<rect x="-0.1" y="-4.9" class="st0" width="1000" height="1000"/>
</g>
<g>
	<g>
		<linearGradient id="SVGID_1_" gradientUnits="userSpaceOnUse" x1="620.4349" y1="502.5755" x2="620.4349" y2="495.0636">
			<stop  offset="0" style="stop-color:#EF4038"/>
			<stop  offset="8.985917e-02" style="stop-color:#EF4337"/>
			<stop  offset="0.1458" style="stop-color:#F04B35"/>
			<stop  offset="0.1924" style="stop-color:#F15A32"/>
			<stop  offset="0.2337" style="stop-color:#F36E2D"/>
			<stop  offset="0.2369" style="stop-color:#F3702D"/>
			<stop  offset="0.393" style="stop-color:#F4752D"/>
			<stop  offset="0.5803" style="stop-color:#F6842F"/>
			<stop  offset="0.7835" style="stop-color:#F99C30"/>
			<stop  offset="0.9968" style="stop-color:#FDBD33"/>
			<stop  offset="1" style="stop-color:#FDBE33"/>
		</linearGradient>
		<path class="st3" d="M620.4,502.6c0.1-1.1,0.2-2.3,0.2-3.5c0-1.4-0.1-2.7-0.3-4.1c0.1,1.6,0.1,3.3,0.1,4.9
			C620.4,500.9,620.4,501.7,620.4,502.6z"/>
	</g>
	<g>
		
			<linearGradient id="SVGID_00000124127246096163355920000015969724853316131247_" gradientUnits="userSpaceOnUse" x1="564.2893" y1="542.6505" x2="564.2893" y2="534.5909">
			<stop  offset="0" style="stop-color:#EF4038"/>
			<stop  offset="8.985917e-02" style="stop-color:#EF4337"/>
			<stop  offset="0.1458" style="stop-color:#F04B35"/>
			<stop  offset="0.1924" style="stop-color:#F15A32"/>
			<stop  offset="0.2337" style="stop-color:#F36E2D"/>
			<stop  offset="0.2369" style="stop-color:#F3702D"/>
			<stop  offset="0.393" style="stop-color:#F4752D"/>
			<stop  offset="0.5803" style="stop-color:#F6842F"/>
			<stop  offset="0.7835" style="stop-color:#F99C30"/>
			<stop  offset="0.9968" style="stop-color:#FDBD33"/>
			<stop  offset="1" style="stop-color:#FDBE33"/>
		</linearGradient>
		<path style="fill:url(#SVGID_00000124127246096163355920000015969724853316131247_);" d="M566.7,534.6c-1.5,2.8-3.1,5.5-4.9,8.1
			C564,540.4,565.7,537.6,566.7,534.6z"/>
	</g>
	<g>
		
			<linearGradient id="SVGID_00000160870273936897671040000007927546519276013968_" gradientUnits="userSpaceOnUse" x1="525.5021" y1="519.5231" x2="525.5021" y2="511.0847">
			<stop  offset="0" style="stop-color:#EF4038"/>
			<stop  offset="8.985917e-02" style="stop-color:#EF4337"/>
			<stop  offset="0.1458" style="stop-color:#F04B35"/>
			<stop  offset="0.1924" style="stop-color:#F15A32"/>
			<stop  offset="0.2337" style="stop-color:#F36E2D"/>
			<stop  offset="0.2369" style="stop-color:#F3702D"/>
			<stop  offset="0.393" style="stop-color:#F4752D"/>
			<stop  offset="0.5803" style="stop-color:#F6842F"/>
			<stop  offset="0.7835" style="stop-color:#F99C30"/>
			<stop  offset="0.9968" style="stop-color:#FDBD33"/>
			<stop  offset="1" style="stop-color:#FDBE33"/>
		</linearGradient>
		<path style="fill:url(#SVGID_00000160870273936897671040000007927546519276013968_);" d="M528,511.1c-2.2,2.4-4,5.3-5.1,8.4
			C525.1,517,526.8,514.2,528,511.1z"/>
	</g>
	<g>
		
			<linearGradient id="SVGID_00000090986130412652763200000018017427275881833104_" gradientUnits="userSpaceOnUse" x1="564.3872" y1="517.9536" x2="564.3872" y2="511.9338">
			<stop  offset="0" style="stop-color:#EF4038"/>
			<stop  offset="8.985917e-02" style="stop-color:#EF4337"/>
			<stop  offset="0.1458" style="stop-color:#F04B35"/>
			<stop  offset="0.1924" style="stop-color:#F15A32"/>
			<stop  offset="0.2337" style="stop-color:#F36E2D"/>
			<stop  offset="0.2369" style="stop-color:#F3702D"/>
			<stop  offset="0.393" style="stop-color:#F4752D"/>
			<stop  offset="0.5803" style="stop-color:#F6842F"/>
			<stop  offset="0.7835" style="stop-color:#F99C30"/>
			<stop  offset="0.9968" style="stop-color:#FDBD33"/>
			<stop  offset="1" style="stop-color:#FDBE33"/>
		</linearGradient>
		<path style="fill:url(#SVGID_00000090986130412652763200000018017427275881833104_);" d="M562.5,511.9c1,2.2,2.3,4.2,3.7,6
			C565.3,515.8,564.1,513.7,562.5,511.9z"/>
	</g>
	<g>
		
			<linearGradient id="SVGID_00000001636744113852123350000012150032509702754466_" gradientUnits="userSpaceOnUse" x1="524.912" y1="484.5221" x2="524.912" y2="481.689">
			<stop  offset="0" style="stop-color:#EF4038"/>
			<stop  offset="8.985917e-02" style="stop-color:#EF4337"/>
			<stop  offset="0.1458" style="stop-color:#F04B35"/>
			<stop  offset="0.1924" style="stop-color:#F15A32"/>
			<stop  offset="0.2337" style="stop-color:#F36E2D"/>
			<stop  offset="0.2369" style="stop-color:#F3702D"/>
			<stop  offset="0.393" style="stop-color:#F4752D"/>
			<stop  offset="0.5803" style="stop-color:#F6842F"/>
			<stop  offset="0.7835" style="stop-color:#F99C30"/>
			<stop  offset="0.9968" style="stop-color:#FDBD33"/>
			<stop  offset="1" style="stop-color:#FDBE33"/>
		</linearGradient>
		<path style="fill:url(#SVGID_00000001636744113852123350000012150032509702754466_);" d="M524,481.7c0.6,1,1.2,1.9,1.9,2.8
			C525.3,483.5,524.6,482.6,524,481.7z"/>
	</g>
	<g>
		
			<linearGradient id="SVGID_00000059998904918904159850000013025863361822659215_" gradientUnits="userSpaceOnUse" x1="499.9158" y1="620.4893" x2="499.9158" y2="379.5107">
			<stop  offset="0" style="stop-color:#EF4038"/>
			<stop  offset="7.373164e-02" style="stop-color:#EF4337"/>
			<stop  offset="0.1196" style="stop-color:#F04B35"/>
			<stop  offset="0.1578" style="stop-color:#F15A32"/>
			<stop  offset="0.1918" style="stop-color:#F36E2D"/>
			<stop  offset="0.1944" style="stop-color:#F3702D"/>
			<stop  offset="0.3592" style="stop-color:#F4752D"/>
			<stop  offset="0.5569" style="stop-color:#F6842F"/>
			<stop  offset="0.7715" style="stop-color:#F99C30"/>
			<stop  offset="0.9967" style="stop-color:#FDBD33"/>
			<stop  offset="1" style="stop-color:#FDBE33"/>
		</linearGradient>
		<path style="fill:url(#SVGID_00000059998904918904159850000013025863361822659215_);" d="M620.3,495.1
			c-2-14.9-14.7-26.4-30.2-26.4c-7.1,0-13.6,2.4-18.8,6.5c-0.2,0.2-0.4,0.3-0.6,0.5c-4.3,3.6-7.6,8.3-9.4,13.7
			c-4.3,3.2-9.5,5-15.2,5c-8.2,0-15.5-3.9-20.2-9.9c-0.7-0.9-1.3-1.8-1.9-2.8c-5.5-7.2-14.2-11.9-24-11.9
			c-16.7,0-30.2,13.5-30.2,30.2c0,16.7,13.5,30.2,30.2,30.2c9.2,0,17.5-4.2,23.1-10.7c1.1-3.2,2.8-6,5.1-8.4
			c4.2-4.5,10.2-7.3,16.9-7.3c7.1,0,13.4,3.2,17.6,8.2c1.5,1.8,2.8,3.8,3.7,6c1.2,2.8,1.8,5.8,1.8,9c0,2.7-0.5,5.3-1.3,7.7
			c-1.1,3-2.7,5.8-4.9,8.1c-13.7,19.7-36.4,32.6-62.2,32.6c-41.8,0-75.7-33.9-75.7-75.7c0-41.8,33.9-75.7,75.7-75.7
			c5.1,0,10,0.5,14.8,1.5c2.7,1.3,5.7,2.2,8.8,2.3c0.4,0,0.8,0,1.3,0c12.6,0,22.8-10.2,22.8-22.8c0-8.6-4.8-16.1-11.9-20
			c-3.2-1.8-6.9-2.8-10.8-2.8c-8-1.7-16.2-2.5-24.7-2.5c-66.5,0-120.5,53.9-120.5,120.5s53.9,120.5,120.5,120.5
			c65.7,0,119.1-52.6,120.5-117.9c0-0.9,0-1.7,0-2.6C620.4,498.3,620.4,496.7,620.3,495.1z"/>
	</g>
</g>
</svg>
