<?xml version="1.0" encoding="utf-8"?>
<!-- Generator: Adobe Illustrator 27.4.0, SVG Export Plug-In . SVG Version: 6.00 Build 0)  -->
<svg version="1.1" id="레이어_1" xmlns="http://www.w3.org/2000/svg" xmlns:xlink="http://www.w3.org/1999/xlink" x="0px"
	 y="0px" viewBox="0 0 1000 1000" style="enable-background:new 0 0 1000 1000;" xml:space="preserve">
<style type="text/css">
	.st0{fill:#B1FFAA;}
	.st1{fill:#1A8A99;}
	.st2{fill:#1E1C72;}
	.st3{fill:#45F9D9;}
	.st4{fill:#FFEBDB;stroke:#000000;stroke-width:1.0518;stroke-miterlimit:10;}
	.st5{fill:#FFFFFF;stroke:#000000;stroke-width:0.9861;stroke-miterlimit:10;}
	.st6{fill:#FFFFFF;stroke:#000000;stroke-width:1.0004;stroke-miterlimit:10;}
	.st7{fill:#FFFFFF;stroke:#000000;stroke-width:0.7023;stroke-miterlimit:10;}
	.st8{fill:#FFFFFF;stroke:#000000;stroke-width:0.9142;stroke-miterlimit:10;}
	.st9{fill:#FFFFFF;stroke:#000000;stroke-width:0.5458;stroke-miterlimit:10;}
	.st10{fill:#FFFFFF;stroke:#000000;stroke-width:0.5428;stroke-miterlimit:10;}
	.st11{fill:#FFFFFF;stroke:#000000;stroke-width:0.6561;stroke-miterlimit:10;}
	.st12{fill:none;}
	.st13{fill:#FFFFFF;stroke:#000000;stroke-width:0.4681;stroke-miterlimit:10;}
	.st14{fill:#FFFFFF;stroke:#000000;stroke-width:0.3266;stroke-miterlimit:10;}
	.st15{fill:#1C1564;}
	.st16{fill:#FFFFFF;stroke:#000000;stroke-width:0.9488;stroke-miterlimit:10;}
	.st17{fill:#FFFFFF;}
	.st18{fill:none;stroke:#FF6241;stroke-width:0.3957;stroke-miterlimit:10;}
	.st19{fill:#FF6241;}
</style>
<g>
	<rect y="-4" class="st0" width="1000" height="1000"/>
</g>
<g>
	<polygon class="st1" points="780.9,113.3 780.9,646.6 378.4,646.6 378.4,757.2 780.9,757.2 891.5,757.2 891.5,646.6 891.5,113.3 	
		"/>
	<polygon class="st1" points="641.7,113.3 108.5,113.3 108.5,224 641.7,224 641.7,626.4 752.4,626.4 752.4,224 752.4,113.3 	"/>
	<polygon class="st1" points="358.3,779 358.3,376.6 247.6,376.6 247.6,779 247.6,889.7 358.3,889.7 891.5,889.7 891.5,779 	"/>
	<polygon class="st1" points="621.6,245.8 219.1,245.8 108.5,245.8 108.5,356.5 108.5,889.7 219.1,889.7 219.1,356.5 621.6,356.5 	
		"/>
</g>
</svg>
