<?xml version="1.0" encoding="utf-8"?>
<!-- Generator: Adobe Illustrator 27.4.0, SVG Export Plug-In . SVG Version: 6.00 Build 0)  -->
<svg version="1.1" id="레이어_1" xmlns="http://www.w3.org/2000/svg" xmlns:xlink="http://www.w3.org/1999/xlink" x="0px"
	 y="0px" viewBox="0 0 1000 1000" style="enable-background:new 0 0 1000 1000;" xml:space="preserve">
<style type="text/css">
	.st0{fill:url(#SVGID_1_);}
	.st1{fill:none;stroke:#000000;stroke-width:1.0199;stroke-miterlimit:10;}
	.st2{fill:none;stroke:#000000;stroke-width:1.5099;stroke-miterlimit:10;}
	.st3{fill:none;stroke:#000000;stroke-width:2.1487;stroke-miterlimit:10;}
	.st4{fill:none;stroke:#000000;stroke-width:2.7214;stroke-miterlimit:10;}
	.st5{fill:none;stroke:#000000;stroke-width:1.0048;stroke-miterlimit:10;}
	.st6{fill:none;stroke:#000000;stroke-width:1.5323;stroke-miterlimit:10;}
	.st7{fill:none;stroke:#000000;stroke-width:1.5283;stroke-miterlimit:10;}
	.st8{fill:none;stroke:#000000;stroke-width:1.6469;stroke-miterlimit:10;}
	.st9{fill:none;stroke:#000000;stroke-width:1.542;stroke-miterlimit:10;}
	.st10{fill:none;stroke:#000000;stroke-width:1.3018;stroke-miterlimit:10;}
	.st11{fill:#0286CA;}
	.st12{fill:none;stroke:#000000;stroke-width:1.1845;stroke-miterlimit:10;}
	.st13{fill:none;stroke:#000000;stroke-miterlimit:10;}
	
		.st14{fill:url(#SVGID_00000110452554738197541390000012360916287517566099_);stroke:#000000;stroke-width:1.1845;stroke-miterlimit:10;}
	.st15{fill:none;stroke:#000000;stroke-width:1.3277;stroke-miterlimit:10;}
	.st16{fill:none;stroke:#000000;stroke-width:1.5726;stroke-miterlimit:10;}
	.st17{fill:#03FDFB;}
	.st18{fill:none;stroke:#000000;stroke-width:1.1659;stroke-miterlimit:10;}
	.st19{fill:none;stroke:#000000;stroke-width:1.1684;stroke-miterlimit:10;}
	.st20{fill:none;stroke:#000000;stroke-width:1.0258;stroke-miterlimit:10;}
	.st21{fill:none;stroke:#000000;stroke-width:1.1825;stroke-miterlimit:10;}
	.st22{fill:none;stroke:#000000;stroke-width:1.1717;stroke-miterlimit:10;}
	.st23{fill:none;stroke:#000000;stroke-width:1.2168;stroke-miterlimit:10;}
	.st24{fill:none;stroke:#000000;stroke-width:0.8326;stroke-miterlimit:10;}
	.st25{fill:none;stroke:#000000;stroke-width:1.3587;stroke-miterlimit:10;}
	.st26{fill:none;stroke:#000000;stroke-width:1.0072;stroke-miterlimit:10;}
	.st27{fill:none;stroke:#000000;stroke-width:1.0066;stroke-miterlimit:10;}
	.st28{fill:none;stroke:#000000;stroke-width:1.2145;stroke-miterlimit:10;}
	.st29{fill:none;stroke:#000000;stroke-width:1.1394;stroke-miterlimit:10;}
	.st30{fill:url(#SVGID_00000141422626775291794910000006486499683832988056_);}
	.st31{fill:none;}
	.st32{fill:#F7BCCF;}
	.st33{fill:url(#SVGID_00000142156347477547322410000000271060402730216083_);}
	.st34{fill:none;stroke:#000000;stroke-width:3;stroke-miterlimit:10;}
	.st35{clip-path:url(#SVGID_00000147177941086180037060000014501790645722863783_);}
	.st36{fill:#98E7ED;}
	.st37{clip-path:url(#SVGID_00000174565969231686457830000008889226844706270378_);}
	.st38{clip-path:url(#SVGID_00000023260873676811758020000010563514866182193554_);}
</style>
<g>
	<rect width="1000" height="1000"/>
</g>
<g>
	<g>
		<polygon class="st17" points="627.1,584.3 657.3,554.1 711.1,500.3 687.7,476.8 652.8,511.7 622.6,541.8 		"/>
		<polygon class="st17" points="618.1,499.4 648.3,469.2 664.2,453.3 644.5,433.6 640.7,429.8 613.5,456.9 		"/>
		<polygon class="st17" points="569.7,358.8 569.8,359.7 570.2,359.3 		"/>
		<polygon class="st17" points="548.6,474.8 553.2,517.3 557.7,559.8 562.2,602.2 532,632.4 501.8,662.6 476.8,687.7 500.3,711.1 
			506.3,705.1 536.5,674.9 566.7,644.7 596.9,614.5 592.4,572 587.9,529.6 583.4,487.1 578.8,444.7 609,414.5 617.2,406.3 
			607.1,396.2 593.7,382.8 574.3,402.2 544.1,432.4 		"/>
		<polygon class="st17" points="479.2,450.3 483.7,492.8 488.3,535.2 492.8,577.7 462.6,607.9 432.4,638.1 433,643.9 453.3,664.2 
			467.1,650.4 497.3,620.2 527.5,590 523,547.5 518.4,505 513.9,462.6 509.4,420.1 539.6,389.9 569.8,359.7 569.7,358.8 
			546.7,335.8 535.1,347.5 504.9,377.7 474.7,407.8 		"/>
		<polygon class="st17" points="429.8,640.7 433,643.9 432.4,638.1 		"/>
		<polygon class="st17" points="409.8,425.8 414.3,468.2 418.8,510.7 423.3,553.2 393.1,583.4 382.8,593.7 395.6,606.5 406.3,617.2 
			427.9,595.6 458.1,565.4 453.5,523 449,480.5 444.5,438 440,395.6 470.2,365.4 500.4,335.2 523.2,312.3 499.7,288.9 495.9,292.7 
			465.7,322.9 435.5,353.1 405.3,383.3 		"/>
		<polygon class="st17" points="358.2,569.1 359.3,570.2 388.6,540.9 384.1,498.4 353.9,528.6 335.8,546.7 		"/>
		<polygon class="st17" points="312.3,523.2 349.4,486.2 379.6,456 375.1,413.5 344.9,443.7 288.9,499.7 		"/>
	</g>
</g>
</svg>
