<?xml version="1.0" encoding="utf-8"?>
<!-- Generator: Adobe Illustrator 27.4.0, SVG Export Plug-In . SVG Version: 6.00 Build 0)  -->
<svg version="1.1" id="레이어_1" xmlns="http://www.w3.org/2000/svg" xmlns:xlink="http://www.w3.org/1999/xlink" x="0px"
	 y="0px" viewBox="0 0 1000 1000" style="enable-background:new 0 0 1000 1000;" xml:space="preserve">
<style type="text/css">
	.st0{fill:#63CDE5;}
	.st1{fill:#6AEAA3;}
	.st2{fill:none;stroke:#000000;stroke-width:0.9882;stroke-miterlimit:10;}
	.st3{fill:url(#SVGID_1_);}
	.st4{fill:none;}
	.st5{fill:url(#SVGID_00000165924049641085153100000008228387850821511059_);}
	.st6{fill:url(#SVGID_00000062188225715857134840000018381212504987365551_);}
	.st7{fill:url(#SVGID_00000137854789542077687680000006677279452620588691_);}
	.st8{fill:url(#SVGID_00000026852346663230615540000017608761767238262933_);}
	.st9{fill:url(#SVGID_00000101086603351565920040000009842791343166225848_);}
	.st10{fill:url(#SVGID_00000083790896698201201680000007092819734541207204_);}
	.st11{fill:url(#SVGID_00000047770263568641399700000003656309569158059938_);}
	.st12{fill:url(#SVGID_00000039096278194858761080000010481995865166092965_);}
</style>
<g>
	<rect class="st1" width="1000" height="1000"/>
</g>
<g>
	<path class="st2" d="M469.9,491.9v-0.4h-5.6C466.2,491.5,468.1,491.6,469.9,491.9z"/>
	<linearGradient id="SVGID_1_" gradientUnits="userSpaceOnUse" x1="425.6543" y1="469.0165" x2="551.6294" y2="469.0165">
		<stop  offset="0" style="stop-color:#BD5E9F"/>
		<stop  offset="0.1909" style="stop-color:#C05F9E"/>
		<stop  offset="0.3097" style="stop-color:#C8649A"/>
		<stop  offset="0.4086" style="stop-color:#D76C95"/>
		<stop  offset="0.4616" style="stop-color:#E27290"/>
		<stop  offset="0.6496" style="stop-color:#E06D8C"/>
		<stop  offset="0.8748" style="stop-color:#DB5E7F"/>
		<stop  offset="1" style="stop-color:#D75375"/>
	</linearGradient>
	<path class="st3" d="M513.6,408.1c-1.2-0.1-2.5-0.2-3.8-0.2h-39.9h-44.3v43v40.5v38.6c0-17.2,11.2-31.7,26.7-36.7
		c3.8-1.2,7.8-1.9,12-1.9h5.6v-29.5v-11h39.9c11,0,20,9.1,20,20.2c0,11.2-8.9,20.2-20,20.2c23.1,0,41.8-18.7,41.8-41.8
		C551.6,427.9,534.9,410,513.6,408.1z"/>
	<path class="st4" d="M509.9,451h-39.9v11v29.5h39.9c11,0,20-9.1,20-20.2C529.8,460,520.9,451,509.9,451z"/>
	<path class="st2" d="M469.9,534.6L469.9,534.6l-2.6-0.1C468.2,534.5,469.1,534.5,469.9,534.6z"/>
	
		<linearGradient id="SVGID_00000061439216201212516000000009731511407161325460_" gradientUnits="userSpaceOnUse" x1="425.6543" y1="492.1434" x2="574.3457" y2="492.1434">
		<stop  offset="0" style="stop-color:#F79980"/>
		<stop  offset="0.2461" style="stop-color:#F59C81"/>
		<stop  offset="0.3991" style="stop-color:#EEA484"/>
		<stop  offset="0.4852" style="stop-color:#E6AD88"/>
		<stop  offset="0.6012" style="stop-color:#E1AE8C"/>
		<stop  offset="0.7404" style="stop-color:#D2B198"/>
		<stop  offset="0.8909" style="stop-color:#BAB6AC"/>
		<stop  offset="1" style="stop-color:#A4BABE"/>
	</linearGradient>
	<path style="fill:url(#SVGID_00000061439216201212516000000009731511407161325460_);" d="M513.6,408.1c21.3,1.9,38,19.8,38,41.6
		c0,23.1-18.7,41.8-41.8,41.8h-39.9v0.4c-1.8-0.3-3.7-0.4-5.6-0.4c-4.2,0-8.2,0.7-12,1.9c-15.5,5-26.7,19.6-26.7,36.7v4.4v41.7
		c0-8.7,2.7-16.8,7.3-23.5c7.5-11,20.1-18.2,34.4-18.2h2.6h32.7h7.2c0.5,0,0.5,0,1,0c34.8,0,63.5-28.6,63.5-63.4
		C574.3,437.1,547.4,409.3,513.6,408.1z"/>
	
		<linearGradient id="SVGID_00000088125819580839566980000008932916585192792507_" gradientUnits="userSpaceOnUse" x1="425.6543" y1="563.2646" x2="469.9424" y2="563.2646">
		<stop  offset="0" style="stop-color:#BD5E9F"/>
		<stop  offset="0.1909" style="stop-color:#C05F9E"/>
		<stop  offset="0.3097" style="stop-color:#C8649A"/>
		<stop  offset="0.4086" style="stop-color:#D76C95"/>
		<stop  offset="0.4616" style="stop-color:#E27290"/>
		<stop  offset="0.6496" style="stop-color:#E06D8C"/>
		<stop  offset="0.8748" style="stop-color:#DB5E7F"/>
		<stop  offset="1" style="stop-color:#D75375"/>
	</linearGradient>
	<path style="fill:url(#SVGID_00000088125819580839566980000008932916585192792507_);" d="M467.4,534.5c-14.3,0-26.9,7.2-34.4,18.2
		c-4.6,6.7-7.3,14.8-7.3,23.5v15.9h3.1h41.1v-23.7v-33.8C469.1,534.5,468.2,534.5,467.4,534.5z"/>
</g>
</svg>
