<?xml version="1.0" encoding="utf-8"?>
<!-- Generator: Adobe Illustrator 27.4.0, SVG Export Plug-In . SVG Version: 6.00 Build 0)  -->
<svg version="1.1" id="레이어_1" xmlns="http://www.w3.org/2000/svg" xmlns:xlink="http://www.w3.org/1999/xlink" x="0px"
	 y="0px" viewBox="0 0 1000 1000" style="enable-background:new 0 0 1000 1000;" xml:space="preserve">
<style type="text/css">
	.st0{fill:url(#SVGID_1_);}
	.st1{fill:none;stroke:#000000;stroke-width:1.0199;stroke-miterlimit:10;}
	.st2{fill:none;stroke:#000000;stroke-width:1.5099;stroke-miterlimit:10;}
	.st3{fill:none;stroke:#000000;stroke-width:2.1487;stroke-miterlimit:10;}
	.st4{fill:none;stroke:#000000;stroke-width:2.7214;stroke-miterlimit:10;}
	.st5{fill:none;stroke:#000000;stroke-width:1.0048;stroke-miterlimit:10;}
	.st6{fill:none;stroke:#000000;stroke-width:1.5323;stroke-miterlimit:10;}
	.st7{fill:none;stroke:#000000;stroke-width:1.5283;stroke-miterlimit:10;}
	.st8{fill:none;stroke:#000000;stroke-width:1.6469;stroke-miterlimit:10;}
	.st9{fill:none;stroke:#000000;stroke-width:1.542;stroke-miterlimit:10;}
	.st10{fill:none;stroke:#000000;stroke-width:1.3018;stroke-miterlimit:10;}
	.st11{fill:#0286CA;}
	.st12{fill:none;stroke:#000000;stroke-width:1.1845;stroke-miterlimit:10;}
	.st13{fill:none;stroke:#000000;stroke-miterlimit:10;}
	
		.st14{fill:url(#SVGID_00000077326090028719724390000012432788549260816517_);stroke:#000000;stroke-width:1.1845;stroke-miterlimit:10;}
	.st15{fill:none;stroke:#000000;stroke-width:1.3277;stroke-miterlimit:10;}
	.st16{fill:none;stroke:#000000;stroke-width:1.5726;stroke-miterlimit:10;}
	.st17{fill:#03FDFB;}
	.st18{fill:none;stroke:#000000;stroke-width:1.1659;stroke-miterlimit:10;}
	.st19{fill:none;stroke:#000000;stroke-width:1.1684;stroke-miterlimit:10;}
	.st20{fill:none;stroke:#000000;stroke-width:1.0258;stroke-miterlimit:10;}
	.st21{fill:none;stroke:#000000;stroke-width:1.1825;stroke-miterlimit:10;}
	.st22{fill:none;stroke:#000000;stroke-width:1.1717;stroke-miterlimit:10;}
	.st23{fill:none;stroke:#000000;stroke-width:1.2168;stroke-miterlimit:10;}
	.st24{fill:none;stroke:#000000;stroke-width:0.8326;stroke-miterlimit:10;}
	.st25{fill:none;stroke:#000000;stroke-width:1.3587;stroke-miterlimit:10;}
	.st26{fill:none;stroke:#000000;stroke-width:1.0072;stroke-miterlimit:10;}
	.st27{fill:none;stroke:#000000;stroke-width:1.0066;stroke-miterlimit:10;}
	.st28{fill:none;stroke:#000000;stroke-width:1.2145;stroke-miterlimit:10;}
	.st29{fill:none;stroke:#000000;stroke-width:1.1394;stroke-miterlimit:10;}
	.st30{fill:url(#SVGID_00000101096233688442103250000004161966186289319554_);}
	.st31{fill:none;}
	.st32{fill:#F7BCCF;}
	.st33{fill:url(#SVGID_00000016788180860621434420000002758189586615442345_);}
	.st34{fill:none;stroke:#000000;stroke-width:3;stroke-miterlimit:10;}
	.st35{clip-path:url(#SVGID_00000127002824943298602040000005791411944199321232_);}
	.st36{fill:#98E7ED;}
	.st37{clip-path:url(#SVGID_00000034055735249145860830000011576671230114088093_);}
	.st38{clip-path:url(#SVGID_00000130638469779345400390000004378169422334561466_);}
</style>
<linearGradient id="SVGID_1_" gradientUnits="userSpaceOnUse" x1="500" y1="1000" x2="500" y2="-9.094947e-13">
	<stop  offset="0" style="stop-color:#B37FFF"/>
	<stop  offset="1" style="stop-color:#94E8FF"/>
</linearGradient>
<rect class="st0" width="1000" height="1000"/>
<g>
	<g>
		<polygon points="447.1,477.6 447.1,477.8 447.2,477.8 447.1,477.6 		"/>
	</g>
	<g>
		<path d="M513.6,477.7c-0.3,0-0.7,0.1-1,0.1L513.6,477.7L513.6,477.7L513.6,477.7z"/>
	</g>
	<g>
		<path d="M527.6,463h-0.3l0.2,0.5C527.5,463.3,527.6,463.2,527.6,463L527.6,463z"/>
	</g>
	<g>
		<path class="st31" d="M503.5,477.8h9.1c0.4,0,0.7,0,1-0.1c7.6-0.5,13.6-6.6,13.9-14.3l-0.2-0.5h-13.6h-16h-2.1h-20.1v6.9v7.8h3.9
			H503.5z"/>
	</g>
	<g>
		<path class="st32" d="M392.6,576.5v-6.3c2.2-21,18.3-37.9,38.9-41.4h0.9h14.6h0h7.3h16.8h1.6h2.6h29.3h12.4h3v0
			c3.6-0.1,7.1-0.4,10.5-1c9.7-1.7,18.6-5.6,26.3-11c17-12,28.1-31.7,28.1-54.1c0-36.5-29.6-66.1-66.1-66.1h-28.2h-15.3h-9.8h-6H453
			h-14h-17.5v29.9v30.3v20.9h5.9h19.6v-0.2v-29.7V420h3.5h17.9h3.7h3.2h28.2h10.1v0c0.1,0,0.2,0,0.2,0c23.6,0,42.8,19.2,42.8,42.8
			c0,11.9-4.9,22.7-12.7,30.4c-6.7,6.6-15.6,11-25.5,12.1c-1.5,0.2-3,0.2-4.5,0.2c-0.1,0-0.2,0-0.2,0v0h-20.5h-17.7h-7h-7.3h-14
			h-9.8h-0.4h-14.4h-0.9h-0.7c-11.1,1.9-21,7.5-28.2,15.5c-7.8,8.7-12.5,20.1-12.5,32.7s4.7,24,12.5,32.7v-6.4V576.5z"/>
	</g>
	<g>
		<path d="M520.2,555.2c-0.3,0-0.6,0-1,0L520.2,555.2L520.2,555.2L520.2,555.2z"/>
	</g>
	<g>
		<path d="M517.7,555.2L517.7,555.2l1.5,0C518.7,555.2,518.2,555.2,517.7,555.2L517.7,555.2z"/>
	</g>
	<g>
		<path d="M520.2,528.9h-3c0.6,0,1.2,0,1.8,0C519.3,528.9,519.7,528.9,520.2,528.9L520.2,528.9L520.2,528.9z"/>
	</g>
	<g>
		<path d="M513.6,447.9h-1C513,447.9,513.3,447.9,513.6,447.9L513.6,447.9L513.6,447.9z"/>
	</g>
	<g>
		
			<linearGradient id="SVGID_00000147926035315102676800000000164404166563518887_" gradientUnits="userSpaceOnUse" x1="392.6486" y1="500" x2="619.8859" y2="500">
			<stop  offset="0" style="stop-color:#A5E9F2"/>
			<stop  offset="1" style="stop-color:#D8FF55"/>
		</linearGradient>
		<path style="fill:url(#SVGID_00000147926035315102676800000000164404166563518887_);" d="M604.3,602.8l-27-49l-7.5-13.6
			c23.2-15,39.2-40.1,42-69.1c0.3-3,0.4-6,0.4-9.1c0-51.4-41.7-93.1-93.1-93.1c-0.1,0-0.2,0-0.3,0v-0.2h-43.5h-30.9h-19.3h-3.7
			h-28.9v27.8v81.1v27.8v15.5c7.2-8,17.1-13.7,28.2-15.5h0.7h0.9h14.4h0.4h9.8h14h7.3h7h17.7h20.5v0c0.1,0,0.2,0,0.2,0
			c1.5,0,3-0.1,4.5-0.2c9.9-1,18.8-5.5,25.5-12.1c7.9-7.8,12.7-18.5,12.7-30.4c0-23.6-19.2-42.8-42.8-42.8c-0.1,0-0.2,0-0.2,0v0
			h-10.1h-28.2h-3.2h-3.7h-17.9h-3.5v27.9v29.7l0.1,0.2h-0.1h-19.6h-5.9v-20.9v-30.3v-29.9h17.5h14h6.6h6h9.8h15.3h28.2
			c36.5,0,66.1,29.6,66.1,66.1c0,22.4-11.1,42.1-28.1,54.1c-7.7,5.4-16.6,9.3-26.3,11c-3.4,0.6-6.9,1-10.5,1c-0.4,0-0.8,0-1.3,0
			c-0.6,0-1.2,0-1.8,0h-12.4h-29.3h-2.6h-1.6h-16.8h-7.3h0h-14.6h-0.9c-20.6,3.4-36.7,20.3-38.9,41.4v6.3v3.5v6.4v16.3v28.3h28.9
			h25.6h28.3v-26v-2.3v-25.3v-8.1v-2.1v-12.2h2.5h3.8h4.2l9.4,18.8l1.8,3.5l12.7,25.3l14.2,28.3h31.4h31.1h33.3L604.3,602.8z
			 M475.4,469.9V463v-15.2h11.9h25.3h1v0.1c2.3,0.2,4.5,0.8,6.4,1.9c4.5,2.6,7.5,7.4,7.5,13c0,0.1,0,0.1,0,0.2c0,0.2,0,0.3,0,0.5
			c-0.3,7.6-6.3,13.7-13.9,14.3v0.1h-1h-9.1h-24.2h-3.9V469.9z M447.1,576.5v19.1v3.6v3.5h-25.6v-0.7v-5v-20.6
			c0-11,8.9-19.9,19.9-19.9c2,0,3.9,0.3,5.7,0.8V576.5z M541.4,602.8l-13.6-27.5l-10-20.1l0,0c0.5,0,1,0,1.5,0c0.3,0,0.6,0,1,0
			c8.1-0.1,16-1.2,23.5-3.2l9.1,16.7l18.5,34.1H541.4z"/>
	</g>
</g>
</svg>
